<svg width="233" height="318" viewBox="0 0 233 318" fill="none" xmlns="http://www.w3.org/2000/svg">
<g clip-path="url(#clip0_13_2186)">
<path d="M206.242 317.487H104.799C90.0441 317.487 78.0414 305.519 78.0414 290.807V26.6794C78.0414 11.9675 90.0441 0 104.799 0H206.242C220.997 0 233 11.9675 233 26.6794V290.807C233 305.519 220.997 317.487 206.242 317.487Z" fill="#DADBDC"/>
<path d="M206.316 310.264H104.726C93.8051 310.264 84.9173 301.403 84.9173 290.514V26.4542C84.9173 15.5656 93.8051 6.70392 104.726 6.70392H206.316C217.236 6.70392 226.124 15.5656 226.124 26.4542V290.514C226.124 301.403 217.236 310.264 206.316 310.264Z" fill="white"/>
<path d="M169.887 24.2806H141.159C137.367 24.2806 134.283 21.2063 134.283 17.4249C134.283 13.6435 137.367 10.5691 141.159 10.5691H169.887C173.68 10.5691 176.763 13.6435 176.763 17.4249C176.763 21.2063 173.68 24.2806 169.887 24.2806Z" fill="#DADBDC"/>
<path d="M199.203 104.916H115.142C113.477 104.916 112.122 103.198 112.122 101.093C112.122 98.9871 113.477 97.2692 115.142 97.2692H199.203C200.868 97.2692 202.224 98.9871 202.224 101.093C202.224 103.198 200.868 104.916 199.203 104.916Z" fill="#DADBDC"/>
<path d="M199.203 121.859H115.142C113.477 121.859 112.122 120.141 112.122 118.036C112.122 115.93 113.477 114.212 115.142 114.212H199.203C200.868 114.212 202.224 115.93 202.224 118.036C202.224 120.141 200.868 121.859 199.203 121.859Z" fill="#DADBDC"/>
<path d="M175.098 138.802H115.142C113.477 138.802 112.122 137.084 112.122 134.979C112.122 132.873 113.477 131.155 115.142 131.155H175.098C176.763 131.155 178.118 132.873 178.118 134.979C178.118 137.084 176.763 138.802 175.098 138.802Z" fill="#DADBDC"/>
<path d="M155.521 238.417C175.338 238.417 191.403 222.4 191.403 202.641C191.403 182.882 175.338 166.864 155.521 166.864C135.704 166.864 119.639 182.882 119.639 202.641C119.639 222.4 135.704 238.417 155.521 238.417Z" fill="#FFAF65"/>
<path d="M145.976 203.384C147.831 207.004 149.685 210.628 151.539 214.247C152.07 215.289 153.63 214.959 153.94 213.933C156.372 205.846 160.889 198.477 166.977 192.616C168.196 191.443 166.336 189.594 165.118 190.762C158.709 196.932 153.966 204.731 151.402 213.236L153.803 212.922C151.949 209.303 150.095 205.678 148.24 202.059C147.473 200.556 145.204 201.881 145.971 203.379H145.976V203.384Z" fill="white"/>
<path d="M58.7897 159.364L50.091 162.323L49.9545 149.8L57.8705 149.711L58.7897 159.364Z" fill="#F3A3A6"/>
<path d="M50.9735 153.257C55.7777 153.257 59.6722 149.374 59.6722 144.584C59.6722 139.794 55.7777 135.911 50.9735 135.911C46.1694 135.911 42.2748 139.794 42.2748 144.584C42.2748 149.374 46.1694 153.257 50.9735 153.257Z" fill="#F3A3A6"/>
<path d="M53.353 143.699C51.898 143.673 50.9262 142.217 50.3432 140.881C49.7601 139.551 49.1613 138.016 47.8113 137.477C46.703 137.037 44.7909 140.111 43.9085 139.31C42.9892 138.472 43.8297 134.104 44.7857 133.313C45.7417 132.522 47.0602 132.355 48.2998 132.281C51.3307 132.108 54.3774 132.318 57.3557 132.905C59.1942 133.266 61.0957 133.821 62.4352 135.13C64.1319 136.791 64.5889 139.32 64.7359 141.688C64.8883 144.107 64.7727 146.648 63.6171 148.784C62.4562 150.916 60.0031 152.508 57.6236 151.995C57.3715 150.712 57.5973 149.392 57.6761 148.083C57.7549 146.778 57.6394 145.37 56.8304 144.338C56.0215 143.306 54.3091 142.913 53.3898 143.846" fill="#2F2E43"/>
<path d="M64.0846 146.585C64.9461 145.94 65.9809 145.396 67.0524 145.516C68.2133 145.642 69.2009 146.585 69.5108 147.705C69.8207 148.826 69.5003 150.068 68.7964 150.995C68.0925 151.922 67.0367 152.54 65.9126 152.854C65.2612 153.037 64.5521 153.116 63.927 152.854C63.0078 152.472 62.5035 151.314 62.8502 150.382" fill="#2F2E43"/>
<path d="M31.7166 228.524C31.1703 231.378 32.2577 233.971 34.1539 234.311C36.045 234.652 38.0253 232.609 38.5716 229.755C38.8079 228.618 38.7554 227.44 38.4192 226.324L45.1113 181.592L36.0975 180.005L33.1296 225.376C32.4047 226.303 31.9162 227.382 31.7166 228.529V228.524Z" fill="#F3A3A6"/>
<path d="M49.9335 156.578L43.7929 156.646C39.4593 157.348 38.3037 159.673 37.3687 163.947C35.9347 170.467 34.1067 179.156 34.4901 179.277C35.1047 179.476 45.6104 184.263 50.9262 183.079L49.9335 156.578Z" fill="#FFAF65"/>
<path d="M57.4742 298.748L49.3013 298.839L49.4308 310.397L57.6037 310.306L57.4742 298.748Z" fill="#F3A3A6"/>
<path d="M41.5289 317.487C40.6675 317.497 39.9058 317.487 39.328 317.44C37.1533 317.267 35.0679 315.69 34.0121 314.769C33.5394 314.355 33.3818 313.684 33.6182 313.108C33.7862 312.695 34.1329 312.38 34.5637 312.249L40.284 310.552L49.5027 304.199L49.6078 304.383C49.6498 304.451 50.5796 306.08 50.8947 307.185C51.0155 307.604 50.9893 307.955 50.8159 308.227C50.6951 308.416 50.527 308.526 50.3905 308.594C50.5585 308.766 51.0891 309.117 52.7175 309.358C55.0865 309.709 55.5645 307.253 55.5803 307.148L55.596 307.064L55.6643 307.017C56.7832 306.279 57.4713 305.944 57.7129 306.012C57.8652 306.054 58.1121 306.127 58.858 312.789C58.9263 312.998 59.4148 314.528 59.1102 315.999C58.7792 317.602 51.7772 317.125 50.3799 317.015C50.3379 317.021 45.1061 317.45 41.5184 317.487H41.5289Z" fill="#2F2E43"/>
<path d="M80.6441 289.389L73.7577 293.778L80.0019 303.517L86.8884 299.128L80.6441 289.389Z" fill="#F3A3A6"/>
<path d="M71.7064 315.565C70.7452 315.575 69.8627 315.47 69.2324 315.366C68.6125 315.261 68.124 314.779 68.019 314.161C67.9402 313.716 68.0715 313.271 68.3656 312.935L72.3158 308.478L76.7649 298.224L76.954 298.323C77.0223 298.36 78.677 299.25 79.5332 300.02C79.8588 300.313 80.0217 300.622 80.0217 300.947C80.0217 301.172 79.9376 301.356 79.8536 301.481C80.09 301.539 80.7256 301.555 82.2331 300.9C84.4288 299.947 83.5306 297.611 83.4886 297.516L83.457 297.438L83.4938 297.365C84.0506 296.15 84.4603 295.5 84.6967 295.427C84.849 295.385 85.0959 295.312 89.2667 300.57C89.4348 300.711 90.6639 301.748 91.184 303.157C91.7513 304.692 85.5634 307.981 84.3132 308.625C84.2765 308.656 77.8102 313.449 75.1523 314.821C74.0965 315.366 72.8411 315.544 71.6959 315.554L71.7064 315.565Z" fill="#2F2E43"/>
<path d="M62.3984 201.997L39.5171 202.248L37.6786 223.491L47.638 301.811L59.3203 301.68L54.1462 256.439L73.5502 297.124L83.851 289.76L68.6283 251.747C68.6283 251.747 73.5449 218.432 69.3007 210.193C65.0564 201.955 62.4037 201.986 62.4037 201.986V201.997H62.3984Z" fill="#2F2E43"/>
<path d="M73.7918 203.165L37.4527 203.568L47.8323 156.604L63.6696 156.426L73.7918 203.165Z" fill="#FFAF65"/>
<path d="M77.3427 228.021C77.9521 230.865 76.9225 233.479 75.0367 233.861C73.151 234.243 71.1286 232.248 70.5193 229.404C70.2567 228.273 70.2829 227.094 70.5928 225.968L62.9027 181.393L71.8798 179.607L75.8562 224.905C76.6021 225.816 77.1116 226.885 77.3427 228.027V228.021Z" fill="#F3A3A6"/>
<path d="M57.529 156.494L63.6696 156.426C68.0189 157.033 69.2218 159.333 70.2567 163.585C71.8325 170.075 73.8548 178.716 73.4766 178.847C72.8621 179.057 62.472 184.074 57.1298 183.011L57.5343 156.494H57.529Z" fill="#FFAF65"/>
</g>
<defs>
<clipPath id="clip0_13_2186">
<rect width="233" height="318" fill="white"/>
</clipPath>
</defs>
</svg>
