<svg width="310" height="278" viewBox="0 0 310 278" fill="none" xmlns="http://www.w3.org/2000/svg">
<g clip-path="url(#clip0_32_3320)">
<path d="M1.73712 62.3803C1.13009 62.5514 0.615565 62.9569 0.306419 63.5078C-0.00272674 64.0587 -0.0812556 64.71 0.0880627 65.3189L39.8499 207.655C40.0207 208.263 40.4252 208.779 40.9748 209.089C41.5244 209.399 42.1742 209.477 42.7816 209.308L189.364 168.167C189.971 167.996 190.486 167.59 190.795 167.039C191.104 166.489 191.182 165.837 191.013 165.228L151.251 22.8925C151.08 22.2841 150.676 21.7683 150.126 21.4585C149.577 21.1486 148.927 21.0699 148.32 21.2396L1.73712 62.3803Z" fill="#E6E6E6"/>
<path d="M44.6237 202.586L184.308 163.382L146.477 27.9608L6.79346 67.1653L44.6237 202.586Z" fill="white"/>
<path d="M25.2614 85.2479C24.3295 85.5095 23.9453 87.0612 24.405 88.7067C24.8646 90.3523 25.9969 91.4783 26.9289 91.2168L90.6366 73.3362C91.5685 73.0747 91.9528 71.5229 91.4931 69.8774C91.0334 68.2318 89.9011 67.1058 88.9692 67.3673L25.2614 85.2479Z" fill="#E6E6E6"/>
<path d="M30.392 103.614C29.4601 103.875 29.0759 105.427 29.5356 107.073C29.9953 108.718 31.1275 109.844 32.0595 109.583L95.7672 91.7021C96.6991 91.4405 97.0834 89.8888 96.6237 88.2432C96.164 86.5977 95.0317 85.4716 94.0998 85.7332L30.392 103.614Z" fill="#E6E6E6"/>
<path d="M35.4635 121.768C34.5315 122.029 34.1473 123.581 34.607 125.227C35.0667 126.872 36.199 127.998 37.1309 127.737L100.839 109.856C101.771 109.595 102.155 108.043 101.695 106.397C101.235 104.752 100.103 103.626 99.1712 103.887L35.4635 121.768Z" fill="#E6E6E6"/>
<path d="M40.594 140.134C39.662 140.395 39.2778 141.947 39.7375 143.592C40.1972 145.238 41.3294 146.364 42.2614 146.103L105.969 128.222C106.901 127.96 107.285 126.409 106.826 124.763C106.366 123.118 105.234 121.992 104.302 122.253L40.594 140.134Z" fill="#E6E6E6"/>
<path d="M121.3 58.5049C120.909 58.6143 120.543 58.7999 120.223 59.0512C119.903 59.3025 119.636 59.6145 119.436 59.9694C119.237 60.3243 119.109 60.7151 119.061 61.1194C119.012 61.5238 119.043 61.9338 119.153 62.326C119.263 62.7182 119.448 63.085 119.699 63.4052C119.95 63.7255 120.262 63.993 120.616 64.1925C120.97 64.3919 121.36 64.5194 121.764 64.5677C122.167 64.616 122.576 64.5841 122.968 64.4738L134.877 61.1312C135.667 60.9095 136.337 60.3825 136.739 59.6661C137.141 58.9497 137.242 58.1026 137.021 57.311C136.8 56.5195 136.274 55.8484 135.56 55.4455C134.845 55.0425 134 54.9406 133.21 55.1623L121.3 58.5049Z" fill="#E6E6E6"/>
<path d="M126.331 76.5148C125.94 76.6242 125.574 76.8098 125.254 77.0611C124.934 77.3124 124.667 77.6243 124.468 77.9792C124.268 78.3341 124.14 78.7249 124.092 79.1293C124.043 79.5337 124.075 79.9437 124.184 80.3359C124.294 80.7281 124.479 81.0948 124.73 81.4151C124.981 81.7353 125.293 82.0028 125.647 82.2023C126.002 82.4018 126.392 82.5293 126.795 82.5776C127.199 82.6259 127.608 82.594 127.999 82.4837L139.909 79.141C140.698 78.9194 141.368 78.3924 141.77 77.676C142.172 76.9596 142.273 76.1124 142.052 75.3209C141.831 74.5294 141.305 73.8583 140.591 73.4553C139.876 73.0524 139.031 72.9505 138.241 73.1721L126.331 76.5148Z" fill="#E6E6E6"/>
<path d="M131.362 94.5246C130.971 94.6343 130.606 94.8202 130.286 95.0716C129.967 95.3229 129.7 95.6349 129.501 95.9896C129.302 96.3444 129.175 96.7349 129.126 97.139C129.078 97.5431 129.109 97.9528 129.219 98.3447C129.328 98.7366 129.514 99.1031 129.764 99.4232C130.015 99.7433 130.326 100.011 130.68 100.21C131.034 100.41 131.424 100.538 131.827 100.586C132.23 100.635 132.639 100.603 133.03 100.493L144.94 97.1508C145.729 96.9292 146.399 96.4022 146.801 95.6858C147.203 94.9694 147.305 94.1222 147.083 93.3307C146.862 92.5392 146.337 91.8681 145.622 91.4651C144.907 91.0622 144.062 90.9603 143.272 91.1819L131.362 94.5246Z" fill="#E6E6E6"/>
<path d="M136.394 112.534C135.605 112.757 134.936 113.284 134.535 114C134.134 114.716 134.032 115.563 134.253 116.354C134.474 117.145 134.999 117.815 135.713 118.218C136.427 118.621 137.272 118.724 138.061 118.503L149.971 115.161C150.76 114.938 151.428 114.411 151.829 113.695C152.231 112.979 152.332 112.132 152.111 111.341C151.89 110.551 151.365 109.88 150.651 109.477C149.937 109.074 149.093 108.971 148.303 109.192L136.394 112.534Z" fill="#E6E6E6"/>
<path d="M141.2 143.752C140.701 143.891 140.235 144.128 139.828 144.448C139.42 144.768 139.08 145.165 138.825 145.618C138.571 146.07 138.409 146.568 138.347 147.083C138.285 147.598 138.325 148.121 138.464 148.621C138.604 149.12 138.84 149.588 139.16 149.996C139.48 150.404 139.877 150.745 140.329 150.999C140.78 151.253 141.277 151.415 141.791 151.477C142.305 151.538 142.826 151.498 143.325 151.357L158.501 147.098C159.507 146.816 160.36 146.144 160.872 145.231C161.384 144.318 161.514 143.239 161.232 142.23C160.95 141.222 160.28 140.367 159.37 139.853C158.459 139.34 157.382 139.21 156.376 139.492L141.2 143.752Z" fill="#FFAF65"/>
<path d="M156.818 128.391L44.5205 159.91L44.8 160.91L157.098 129.392L156.818 128.391Z" fill="#E6E6E6"/>
<path d="M269.62 262.912L260.613 265.095L247.929 231.313L261.222 228.092L269.62 262.912Z" fill="#A0616A"/>
<path d="M245.075 278L245.014 277.748C244.3 274.774 244.792 271.637 246.383 269.026C247.973 266.416 250.532 264.544 253.497 263.822L271.119 259.552L273.884 271.019L245.075 278Z" fill="#2F2E41"/>
<path d="M229.749 269.062L220.484 269.062L216.075 233.238L229.751 233.238L229.749 269.062Z" fill="#A0616A"/>
<path d="M231.994 277.946L202.354 277.945V277.685C202.354 274.625 203.567 271.691 205.726 269.527C207.884 267.364 210.812 266.148 213.865 266.148H213.865L231.994 266.149L231.994 277.946Z" fill="#2F2E41"/>
<path d="M216.068 255.077L207.071 147.604L244.314 140.723L244.461 140.697L255.362 147.72L251.568 187.273L269.037 248.939L253.953 252.917L236.456 195.726L232.452 178.335L230.4 200.934L231.924 256.666L216.068 255.077Z" fill="#2F2E41"/>
<path d="M205.918 150.042L205.819 149.917L218.689 52.7896L218.706 52.6624L218.796 52.5714C218.986 52.3812 223.495 47.915 228.133 47.915C228.804 47.915 229.441 47.898 230.053 47.8824C233.602 47.7899 236.405 47.716 239.737 51.0562C243.132 54.4586 254.208 66.8831 254.208 83.8995C254.208 100.37 255.704 151.555 255.719 152.07L255.741 152.792L255.136 152.398C254.986 152.302 240.089 142.794 227.595 151.632C223.691 154.395 220.183 155.363 217.184 155.363C210.204 155.363 205.977 150.118 205.918 150.042Z" fill="#FFAF65"/>
<path d="M235.067 39.9008C244.063 34.9718 247.369 23.6663 242.451 14.6495C237.534 5.63256 226.255 2.31873 217.259 7.24781C208.263 12.1769 204.957 23.4823 209.875 32.4992C214.792 41.5161 226.071 44.8299 235.067 39.9008Z" fill="#A0616A"/>
<path d="M197.746 170.915C198.625 170.233 199.343 169.366 199.851 168.376C200.358 167.385 200.643 166.295 200.686 165.182C200.728 164.069 200.526 162.96 200.094 161.934C199.662 160.908 199.011 159.989 198.187 159.242L208.729 134.318L194.926 136.864L187.031 160.143C185.872 161.614 185.29 163.46 185.398 165.332C185.505 167.204 186.294 168.971 187.615 170.299C188.936 171.627 190.697 172.423 192.564 172.537C194.431 172.65 196.275 172.073 197.746 170.915Z" fill="#A0616A"/>
<path d="M187.561 151.527L190.956 144.344C190.746 144.217 190.573 144.038 190.455 143.823C187.283 138.314 206.44 92.5613 207.717 89.5265C207.523 87.876 205.512 70.3854 206.982 64.4898C208.713 57.5496 212.267 54.3151 218.866 53.6744C226.144 52.9894 228.108 62.8955 228.126 62.9961L228.133 88.4627L219.781 117.778L200.732 156.728L187.561 151.527Z" fill="#FFAF65"/>
<path d="M228.537 30.5843C226.311 30.8746 224.633 28.5924 223.854 26.4829C223.076 24.3733 222.483 21.9173 220.548 20.7778C217.905 19.2209 214.523 21.0934 211.5 20.5797C208.087 19.9997 205.867 16.3735 205.693 12.9075C205.519 9.44156 206.895 6.10805 208.246 2.91247L208.717 6.88385C208.654 5.53785 208.936 4.19814 209.538 2.99289C210.139 1.78763 211.038 0.75714 212.15 -2.28882e-05L211.543 5.82738C211.924 2.56273 215.433 0.0330552 218.642 0.709594L218.546 4.18177C222.489 3.71186 226.466 3.24128 230.42 3.59929C234.374 3.95729 238.356 5.21134 241.353 7.82165C245.836 11.7263 247.473 18.1557 246.924 24.0831C246.374 30.0106 243.933 35.579 241.389 40.9581C240.749 42.3116 239.863 43.8388 238.379 44.0112C237.045 44.1661 235.825 43.0486 235.41 41.7686C234.996 40.4886 235.198 39.098 235.446 37.7754C235.821 35.7775 236.294 33.7353 235.942 31.7333C235.589 29.7313 234.152 27.7529 232.139 27.5075C230.125 27.2622 228.065 29.569 229.033 31.3555L228.537 30.5843Z" fill="#2F2E41"/>
<path d="M309.802 277.988H176.217V276.894H310L309.802 277.988Z" fill="#3F3D56"/>
</g>
<defs>
<clipPath id="clip0_32_3320">
<rect width="310" height="278" fill="white"/>
</clipPath>
</defs>
</svg>
