<svg width="238" height="282" viewBox="0 0 238 282" fill="none" xmlns="http://www.w3.org/2000/svg">
<g clip-path="url(#clip0_13_1882)">
<path d="M169.256 236.649L171.61 282C171.61 282 72.0274 186.907 59.6212 159.084C47.215 131.261 70.5678 62.4362 70.5678 62.4362L122.382 90.9914L169.256 236.649Z" fill="#9F616A"/>
<path d="M16.5642 43.3994L1.23895 44.8638C1.23895 44.8638 -6.78861 62.4362 18.0238 63.9006L16.5642 43.3994Z" fill="#9F616A"/>
<path d="M16.5642 70.4902L1.23895 71.9546C1.23895 71.9546 -6.78861 89.527 18.0238 90.9914L16.5642 70.4902Z" fill="#9F616A"/>
<path d="M16.5642 99.7775L1.23895 101.242C1.23895 101.242 -6.78861 118.814 18.0238 120.279L16.5642 99.7775Z" fill="#9F616A"/>
<path d="M20.9429 129.065L5.61761 130.529C5.61761 130.529 -2.40996 148.102 22.4025 149.566L20.9429 129.065Z" fill="#9F616A"/>
<path d="M9.10327 50.4589H10.2661V18.4981C10.2661 16.0689 10.743 13.6635 11.6696 11.4192C12.5961 9.17489 13.9542 7.13567 15.6663 5.41797C17.3783 3.70026 19.4108 2.33771 21.6477 1.40809C23.8846 0.478473 26.2822 1.86115e-06 28.7034 0H96.1942C98.6154 -4.96294e-06 101.013 0.478458 103.25 1.40807C105.487 2.33768 107.519 3.70023 109.231 5.41793C110.943 7.13563 112.301 9.17483 113.228 11.4191C114.155 13.6634 114.631 16.0688 114.631 18.498V193.838C114.631 196.267 114.155 198.672 113.228 200.917C112.301 203.161 110.943 205.2 109.231 206.918C107.519 208.635 105.487 209.998 103.25 210.928C101.013 211.857 98.6154 212.336 96.1942 212.336H28.7035C23.8136 212.336 19.124 210.387 15.6663 206.918C12.2087 203.449 10.2661 198.744 10.2661 193.838V73.2092H9.10327V50.4589Z" fill="#3F3D56"/>
<path d="M27.9594 4.81251H36.7692C36.3641 5.80906 36.2094 6.89027 36.3189 7.9609C36.4283 9.03154 36.7986 10.0587 37.3969 10.952C37.9953 11.8453 38.8034 12.5772 39.7501 13.0833C40.6968 13.5894 41.753 13.8542 42.8257 13.8543H81.4903C82.5631 13.8542 83.6193 13.5894 84.566 13.0833C85.5127 12.5772 86.3209 11.8453 86.9192 10.952C87.5176 10.0587 87.8878 9.03154 87.9972 7.9609C88.1067 6.89027 87.952 5.80905 87.5469 4.8125H95.7753C99.4269 4.8125 102.929 6.26791 105.511 8.85856C108.093 11.4492 109.544 14.9629 109.544 18.6266V193.709C109.544 195.523 109.188 197.319 108.496 198.995C107.804 200.671 106.79 202.194 105.511 203.477C104.233 204.76 102.715 205.777 101.044 206.472C99.3738 207.166 97.5834 207.523 95.7753 207.523H27.9594C26.1513 207.523 24.3609 207.166 22.6904 206.472C21.0199 205.777 19.502 204.76 18.2235 203.477C16.9449 202.194 15.9307 200.671 15.2388 198.995C14.5468 197.319 14.1907 195.523 14.1907 193.709V18.6266C14.1907 16.8125 14.5468 15.0162 15.2388 13.3402C15.9307 11.6642 16.9449 10.1413 18.2235 8.85857C19.502 7.57581 21.0199 6.55827 22.6904 5.86404C24.3609 5.16982 26.1513 4.81251 27.9594 4.81251Z" fill="white"/>
<path d="M76.3967 53.8619H47.3379V60.8972H76.3967V53.8619Z" fill="#FFAF65"/>
<path d="M77.7803 84.0922H45.9546V91.1275H77.7803V84.0922Z" fill="#E5E5E5"/>
<path d="M97.3832 99.2049H26.3513V106.24H97.3832V99.2049Z" fill="#E5E5E5"/>
<path d="M97.3832 114.318H26.3513V121.353H97.3832V114.318Z" fill="#E5E5E5"/>
<path d="M238 260.269L156.317 166.772L153.398 106.733L122.747 55.4804L113.99 33.5149C113.99 33.5149 93.5558 35.7114 110.341 77.4459L117.274 99.7775C111.024 113.282 107.786 127.992 107.786 142.882V194.054C107.786 206.104 165.019 271.738 171.681 281.764L238 260.269Z" fill="#9F616A"/>
<path opacity="0.2" d="M116.392 59.8234L122.486 56.819L122.278 56.3947L116.648 59.1711L108.149 36.8154L107.709 36.9841L116.392 59.8234Z" fill="black"/>
<path opacity="0.2" d="M1.32049 44.6414L1.15771 45.0847L10.1844 48.4208L10.3471 47.9775L1.32049 44.6414Z" fill="black"/>
<path opacity="0.2" d="M1.32049 72.0409L1.15771 72.4843L10.1844 75.8203L10.3471 75.377L1.32049 72.0409Z" fill="black"/>
<path opacity="0.2" d="M1.32049 101.33L1.15771 101.773L10.1844 105.109L10.3471 104.666L1.32049 101.33Z" fill="black"/>
<path opacity="0.2" d="M6.04965 130.628L5.84595 131.054L10.2406 133.17L10.4443 132.744L6.04965 130.628Z" fill="black"/>
<path d="M61.9033 182.067C73.145 182.067 82.2582 172.924 82.2582 161.645C82.2582 150.367 73.145 141.223 61.9033 141.223C50.6616 141.223 41.5483 150.367 41.5483 161.645C41.5483 172.924 50.6616 182.067 61.9033 182.067Z" fill="#FFAF65"/>
<path d="M59.9635 170.266L53.8716 162.407L57.4143 159.642L60.2987 163.363L70.0439 153.042L73.3027 156.14L59.9635 170.266Z" fill="white"/>
</g>
<defs>
<clipPath id="clip0_13_1882">
<rect width="238" height="282" fill="white"/>
</clipPath>
</defs>
</svg>
