<svg width="310" height="305" viewBox="0 0 310 305" fill="none" xmlns="http://www.w3.org/2000/svg">
<g clip-path="url(#clip0_34_1558)">
<path d="M196.801 68.8686H113.269C111.366 68.871 109.541 69.6317 108.195 70.9839C106.849 72.3361 106.092 74.1695 106.089 76.0818V262.591L105.132 262.885L84.6403 269.189C83.6691 269.486 82.6202 269.385 81.7237 268.906C80.8272 268.427 80.1564 267.611 79.8586 266.636L18.9054 66.6133C18.6087 65.6376 18.7098 64.5836 19.1865 63.6828C19.6631 62.782 20.4762 62.1081 21.4471 61.8093L53.0247 52.0955L144.569 23.9448L176.146 14.231C176.627 14.0824 177.132 14.0305 177.633 14.0782C178.133 14.1259 178.619 14.2723 179.064 14.5091C179.508 14.7458 179.901 15.0682 180.221 15.4578C180.541 15.8474 180.781 16.2966 180.928 16.7797L196.509 67.9069L196.801 68.8686Z" fill="#F2F2F2"/>
<path d="M215.028 67.907L196.25 6.28695C195.938 5.26024 195.427 4.30545 194.747 3.47712C194.068 2.64879 193.232 1.96317 192.288 1.45942C191.344 0.955682 190.311 0.643689 189.247 0.541286C188.184 0.438883 187.11 0.548077 186.088 0.862616L141.692 14.5148L50.1528 42.6704L5.75677 56.3274C3.69436 56.9636 1.96748 58.3959 0.955176 60.3099C-0.0571314 62.224 -0.27216 64.4633 0.357299 66.5365L64.5366 277.128C65.0479 278.802 66.0797 280.267 67.4805 281.308C68.8812 282.349 70.5773 282.912 72.3198 282.913C73.1262 282.914 73.9282 282.792 74.6986 282.553L105.132 273.195L106.089 272.897V271.892L105.132 272.185L74.4163 281.634C72.5958 282.192 70.6296 282.001 68.9489 281.104C67.2681 280.207 66.0102 278.677 65.4509 276.849L1.27653 66.2527C0.999426 65.3472 0.902849 64.3956 0.992323 63.4526C1.0818 62.5095 1.35556 61.5934 1.79795 60.7567C2.24034 59.9201 2.84267 59.1793 3.57043 58.5769C4.29819 57.9744 5.13709 57.5221 6.03909 57.2458L50.4352 43.5888L141.975 15.4381L186.371 1.78111C187.055 1.57135 187.766 1.46439 188.482 1.46372C190.017 1.46719 191.511 1.9644 192.744 2.88253C193.978 3.80065 194.886 5.09146 195.336 6.56587L214.028 67.907L214.325 68.8687H215.321L215.028 67.907Z" fill="#3F3D56"/>
<path d="M58.723 61.9665C57.8004 61.9658 56.9023 61.6681 56.1605 61.1171C55.4186 60.5661 54.8721 59.7908 54.601 58.9049L48.4357 38.6734C48.27 38.1299 48.2125 37.559 48.2665 36.9932C48.3205 36.4274 48.4849 35.8779 48.7503 35.376C49.0157 34.874 49.3769 34.4295 49.8134 34.0679C50.2498 33.7062 50.7529 33.4345 51.2939 33.2681L135.509 7.36612C136.602 7.0312 137.782 7.14542 138.791 7.68372C139.8 8.22202 140.555 9.1404 140.89 10.2373L147.055 30.469C147.389 31.5666 147.275 32.7521 146.739 33.7655C146.203 34.7788 145.289 35.5373 144.197 35.8745L59.9816 61.7765C59.5737 61.9023 59.1496 61.9663 58.723 61.9665Z" fill="#FFAF65"/>
<path d="M91.0196 22.1178C96.3067 22.1178 100.593 17.8118 100.593 12.5002C100.593 7.18852 96.3067 2.88257 91.0196 2.88257C85.7324 2.88257 81.4463 7.18852 81.4463 12.5002C81.4463 17.8118 85.7324 22.1178 91.0196 22.1178Z" fill="#FFAF65"/>
<path d="M91.0196 18.5904C94.3676 18.5904 97.0817 15.8637 97.0817 12.5002C97.0817 9.1367 94.3676 6.41003 91.0196 6.41003C87.6716 6.41003 84.9575 9.1367 84.9575 12.5002C84.9575 15.8637 87.6716 18.5904 91.0196 18.5904Z" fill="white"/>
<path d="M288.46 280.456H126.672C125.593 280.455 124.559 280.024 123.796 279.257C123.034 278.491 122.605 277.452 122.603 276.368V81.6119C122.604 80.5282 123.034 79.4892 123.796 78.7229C124.559 77.9567 125.593 77.5256 126.672 77.5244H288.46C289.539 77.5257 290.573 77.9567 291.336 78.723C292.099 79.4893 292.528 80.5282 292.529 81.6119V276.368C292.528 277.452 292.099 278.491 291.336 279.257C290.573 280.024 289.539 280.455 288.46 280.456Z" fill="#E6E6E6"/>
<path d="M214.028 67.9069H113.269C111.112 67.9099 109.044 68.7722 107.519 70.3046C105.993 71.8371 105.135 73.9146 105.132 76.0818V272.185L106.089 271.892V76.0818C106.092 74.1695 106.849 72.3361 108.195 70.9839C109.541 69.6317 111.366 68.8709 113.269 68.8686H214.325L214.028 67.9069ZM301.863 67.9069H113.269C111.112 67.9099 109.044 68.7722 107.519 70.3046C105.993 71.8371 105.135 73.9146 105.132 76.0818V296.325C105.135 298.492 105.993 300.57 107.519 302.102C109.044 303.635 111.112 304.497 113.269 304.5H301.863C304.02 304.497 306.088 303.635 307.613 302.102C309.139 300.57 309.997 298.492 310 296.325V76.0818C309.997 73.9146 309.139 71.8371 307.613 70.3046C306.088 68.7722 304.02 67.9099 301.863 67.9069ZM309.043 296.325C309.04 298.237 308.283 300.071 306.937 301.423C305.591 302.775 303.766 303.536 301.863 303.538H113.269C111.366 303.536 109.541 302.775 108.195 301.423C106.849 300.071 106.092 298.237 106.089 296.325V76.0818C106.092 74.1695 106.849 72.3361 108.195 70.9839C109.541 69.6317 111.366 68.8709 113.269 68.8686H301.863C303.766 68.8709 305.591 69.6317 306.937 70.9839C308.283 72.3361 309.04 74.1695 309.043 76.0818V296.325Z" fill="#3F3D56"/>
<path d="M251.603 89.0656H163.529C162.387 89.0643 161.292 88.6079 160.484 87.7965C159.677 86.9852 159.222 85.8851 159.221 84.7376V63.5789C159.222 62.4315 159.677 61.3314 160.484 60.52C161.292 59.7087 162.387 59.2523 163.529 59.251H251.603C252.745 59.2523 253.84 59.7087 254.648 60.52C255.456 61.3314 255.91 62.4315 255.911 63.5789V84.7376C255.91 85.8851 255.456 86.9852 254.648 87.7965C253.84 88.6079 252.745 89.0643 251.603 89.0656Z" fill="#FFAF65"/>
<path d="M207.566 60.6936C212.853 60.6936 217.139 56.3876 217.139 51.076C217.139 45.7643 212.853 41.4584 207.566 41.4584C202.279 41.4584 197.993 45.7643 197.993 51.076C197.993 56.3876 202.279 60.6936 207.566 60.6936Z" fill="#FFAF65"/>
<path d="M207.566 56.9341C210.786 56.9341 213.397 54.3113 213.397 51.076C213.397 47.8407 210.786 45.218 207.566 45.218C204.346 45.218 201.735 47.8407 201.735 51.076C201.735 54.3113 204.346 56.9341 207.566 56.9341Z" fill="white"/>
</g>
<defs>
<clipPath id="clip0_34_1558">
<rect width="310" height="304" fill="white" transform="translate(0 0.5)"/>
</clipPath>
</defs>
</svg>
