<svg width="23" height="22" viewBox="0 0 23 22" fill="none" xmlns="http://www.w3.org/2000/svg">
<path d="M16.9267 10.6517C16.883 10.5392 16.8176 10.4364 16.7342 10.3492L12.1508 5.76586C12.0654 5.68039 11.9639 5.6126 11.8522 5.56634C11.7406 5.52008 11.6209 5.49628 11.5 5.49628C11.2559 5.49628 11.0218 5.59325 10.8492 5.76586C10.7637 5.85133 10.6959 5.9528 10.6496 6.06447C10.6034 6.17614 10.5796 6.29582 10.5796 6.41669C10.5796 6.6608 10.6766 6.89492 10.8492 7.06753L13.8742 10.0834H6.91667C6.67355 10.0834 6.44039 10.1799 6.26849 10.3518C6.09658 10.5238 6 10.7569 6 11C6 11.2431 6.09658 11.4763 6.26849 11.6482C6.44039 11.8201 6.67355 11.9167 6.91667 11.9167H13.8742L10.8492 14.9325C10.7632 15.0177 10.6951 15.1191 10.6485 15.2308C10.602 15.3425 10.578 15.4623 10.578 15.5834C10.578 15.7044 10.602 15.8242 10.6485 15.9359C10.6951 16.0476 10.7632 16.149 10.8492 16.2342C10.9344 16.3201 11.0358 16.3883 11.1475 16.4348C11.2592 16.4814 11.379 16.5053 11.5 16.5053C11.621 16.5053 11.7408 16.4814 11.8525 16.4348C11.9642 16.3883 12.0656 16.3201 12.1508 16.2342L16.7342 11.6509C16.8176 11.5637 16.883 11.4609 16.9267 11.3484C17.0183 11.1252 17.0183 10.8749 16.9267 10.6517Z" fill="black"/>
</svg>
