<svg width="29" height="28" viewBox="0 0 29 28" fill="none" xmlns="http://www.w3.org/2000/svg">
<path d="M19.0182 22.8431H9.98116C9.08237 22.8431 8.22039 22.4861 7.58485 21.8505C6.94931 21.215 6.59227 20.353 6.59227 19.4542V8.15791C6.59227 7.85832 6.47325 7.57099 6.26141 7.35915C6.04956 7.1473 5.76223 7.02828 5.46264 7.02828C5.16304 7.02828 4.87572 7.1473 4.66387 7.35915C4.45202 7.57099 4.33301 7.85832 4.33301 8.15791V19.4542C4.33301 20.9522 4.92808 22.3888 5.98731 23.4481C7.04655 24.5073 8.48317 25.1024 9.98116 25.1024H19.0182C19.3178 25.1024 19.6051 24.9833 19.817 24.7715C20.0288 24.5597 20.1478 24.2723 20.1478 23.9727C20.1478 23.6731 20.0288 23.3858 19.817 23.174C19.6051 22.9621 19.3178 22.8431 19.0182 22.8431ZM12.2404 14.9357C12.2404 15.2353 12.3594 15.5226 12.5713 15.7345C12.7831 15.9463 13.0704 16.0653 13.37 16.0653H19.0182C19.3178 16.0653 19.6051 15.9463 19.817 15.7345C20.0288 15.5226 20.1478 15.2353 20.1478 14.9357C20.1478 14.6361 20.0288 14.3488 19.817 14.1369C19.6051 13.9251 19.3178 13.8061 19.0182 13.8061H13.37C13.0704 13.8061 12.7831 13.9251 12.5713 14.1369C12.3594 14.3488 12.2404 14.6361 12.2404 14.9357ZM24.6663 10.3494C24.6546 10.2456 24.6319 10.1434 24.5986 10.0444V9.94273C24.5443 9.82658 24.4718 9.71981 24.3839 9.62643L17.6062 2.84865C17.5128 2.76079 17.406 2.68834 17.2899 2.63402C17.2561 2.62924 17.2219 2.62924 17.1882 2.63402C17.0734 2.56821 16.9467 2.52597 16.8154 2.50977H12.2404C11.3416 2.50977 10.4796 2.86681 9.84411 3.50235C9.20857 4.13789 8.85153 4.99987 8.85153 5.89865V17.195C8.85153 18.0937 9.20857 18.9557 9.84411 19.5913C10.4796 20.2268 11.3416 20.5838 12.2404 20.5838H21.2775C22.1762 20.5838 23.0382 20.2268 23.6738 19.5913C24.3093 18.9557 24.6663 18.0937 24.6663 17.195V10.4172C24.6663 10.4172 24.6663 10.4172 24.6663 10.3494ZM17.8886 6.3618L20.8143 9.28754H19.0182C18.7186 9.28754 18.4313 9.16853 18.2194 8.95668C18.0076 8.74484 17.8886 8.45751 17.8886 8.15791V6.3618ZM22.4071 17.195C22.4071 17.4945 22.2881 17.7819 22.0762 17.9937C21.8644 18.2056 21.577 18.3246 21.2775 18.3246H12.2404C11.9408 18.3246 11.6535 18.2056 11.4416 17.9937C11.2298 17.7819 11.1108 17.4945 11.1108 17.195V5.89865C11.1108 5.59906 11.2298 5.31173 11.4416 5.09989C11.6535 4.88804 11.9408 4.76903 12.2404 4.76903H15.6293V8.15791C15.6324 8.54328 15.7011 8.9253 15.8326 9.28754H13.37C13.0704 9.28754 12.7831 9.40656 12.5713 9.61841C12.3594 9.83025 12.2404 10.1176 12.2404 10.4172C12.2404 10.7168 12.3594 11.0041 12.5713 11.2159C12.7831 11.4278 13.0704 11.5468 13.37 11.5468H22.4071V17.195Z" fill="#000000"/>
</svg>
