<svg width="32" height="32" viewBox="0 0 32 32" fill="none" xmlns="http://www.w3.org/2000/svg">
<path d="M20 21.3334H12C11.6464 21.3334 11.3073 21.4739 11.0572 21.7239C10.8072 21.974 10.6667 22.3131 10.6667 22.6667C10.6667 23.0204 10.8072 23.3595 11.0572 23.6096C11.3073 23.8596 11.6464 24.0001 12 24.0001H20C20.3537 24.0001 20.6928 23.8596 20.9428 23.6096C21.1929 23.3595 21.3334 23.0204 21.3334 22.6667C21.3334 22.3131 21.1929 21.974 20.9428 21.7239C20.6928 21.4739 20.3537 21.3334 20 21.3334ZM12 13.3334H13.3334C13.687 13.3334 14.0261 13.1929 14.2762 12.9429C14.5262 12.6928 14.6667 12.3537 14.6667 12.0001C14.6667 11.6465 14.5262 11.3073 14.2762 11.0573C14.0261 10.8072 13.687 10.6667 13.3334 10.6667H12C11.6464 10.6667 11.3073 10.8072 11.0572 11.0573C10.8072 11.3073 10.6667 11.6465 10.6667 12.0001C10.6667 12.3537 10.8072 12.6928 11.0572 12.9429C11.3073 13.1929 11.6464 13.3334 12 13.3334ZM20 16.0001H12C11.6464 16.0001 11.3073 16.1406 11.0572 16.3906C10.8072 16.6407 10.6667 16.9798 10.6667 17.3334C10.6667 17.687 10.8072 18.0262 11.0572 18.2762C11.3073 18.5263 11.6464 18.6667 12 18.6667H20C20.3537 18.6667 20.6928 18.5263 20.9428 18.2762C21.1929 18.0262 21.3334 17.687 21.3334 17.3334C21.3334 16.9798 21.1929 16.6407 20.9428 16.3906C20.6928 16.1406 20.3537 16.0001 20 16.0001ZM26.28 20.3867C26.1532 20.2654 26.0037 20.1702 25.84 20.1067C25.6809 20.0346 25.5081 19.9972 25.3334 19.9972C25.1586 19.9972 24.9859 20.0346 24.8267 20.1067C24.663 20.1702 24.5135 20.2654 24.3867 20.3867C24.2689 20.5163 24.1742 20.6652 24.1067 20.8267C24.0046 21.0696 23.9767 21.3372 24.0265 21.5958C24.0764 21.8545 24.2017 22.0926 24.3867 22.2801C24.5113 22.4037 24.659 22.5014 24.8215 22.5678C24.9839 22.6341 25.1579 22.6678 25.3334 22.6667C25.5076 22.6646 25.6797 22.6284 25.84 22.5601C26.0016 22.4926 26.1504 22.3979 26.28 22.2801C26.465 22.0926 26.5904 21.8545 26.6402 21.5958C26.69 21.3372 26.6621 21.0696 26.56 20.8267C26.4925 20.6652 26.3978 20.5163 26.28 20.3867ZM26.6667 11.9201C26.6528 11.7976 26.626 11.6769 26.5867 11.5601V11.4401C26.5226 11.303 26.4371 11.177 26.3334 11.0667L18.3334 3.06675C18.2232 2.96304 18.0971 2.87752 17.96 2.81341C17.9202 2.80776 17.8798 2.80776 17.84 2.81341C17.7046 2.73574 17.555 2.68587 17.4 2.66675H9.33337C8.27251 2.66675 7.25509 3.08818 6.50495 3.83832C5.7548 4.58847 5.33337 5.60588 5.33337 6.66675V25.3334C5.33337 26.3943 5.7548 27.4117 6.50495 28.1618C7.25509 28.912 8.27251 29.3334 9.33337 29.3334H20C20.3537 29.3334 20.6928 29.1929 20.9428 28.9429C21.1929 28.6928 21.3334 28.3537 21.3334 28.0001C21.3334 27.6465 21.1929 27.3073 20.9428 27.0573C20.6928 26.8072 20.3537 26.6667 20 26.6667H9.33337C8.97975 26.6667 8.64061 26.5263 8.39057 26.2762C8.14052 26.0262 8.00004 25.687 8.00004 25.3334V6.66675C8.00004 6.31313 8.14052 5.97399 8.39057 5.72394C8.64061 5.47389 8.97975 5.33341 9.33337 5.33341H16V9.33342C16 10.3943 16.4215 11.4117 17.1716 12.1618C17.9218 12.912 18.9392 13.3334 20 13.3334H24V16.0001C24 16.3537 24.1405 16.6928 24.3906 16.9429C24.6406 17.1929 24.9798 17.3334 25.3334 17.3334C25.687 17.3334 26.0261 17.1929 26.2762 16.9429C26.5262 16.6928 26.6667 16.3537 26.6667 16.0001V12.0001C26.6667 12.0001 26.6667 12.0001 26.6667 11.9201ZM20 10.6667C19.6464 10.6667 19.3073 10.5263 19.0572 10.2762C18.8072 10.0262 18.6667 9.68704 18.6667 9.33342V7.21341L22.12 10.6667H20ZM25.3334 24.0001C24.9798 24.0001 24.6406 24.1406 24.3906 24.3906C24.1405 24.6407 24 24.9798 24 25.3334V28.0001C24 28.3537 24.1405 28.6928 24.3906 28.9429C24.6406 29.1929 24.9798 29.3334 25.3334 29.3334C25.687 29.3334 26.0261 29.1929 26.2762 28.9429C26.5262 28.6928 26.6667 28.3537 26.6667 28.0001V25.3334C26.6667 24.9798 26.5262 24.6407 26.2762 24.3906C26.0261 24.1406 25.687 24.0001 25.3334 24.0001Z" fill="black"/>
</svg>
