<svg width="23" height="22" viewBox="0 0 23 22" fill="none" xmlns="http://www.w3.org/2000/svg">
<path d="M11.5 11.9166C11.2209 11.9133 10.9475 11.9956 10.7167 12.1525C10.4858 12.3093 10.3085 12.533 10.2086 12.7937C10.1088 13.0543 10.0911 13.3392 10.1581 13.6102C10.2251 13.8811 10.3735 14.125 10.5833 14.3091V15.5833C10.5833 15.8264 10.6799 16.0595 10.8518 16.2314C11.0237 16.4033 11.2569 16.4999 11.5 16.4999C11.7431 16.4999 11.9763 16.4033 12.1482 16.2314C12.3201 16.0595 12.4167 15.8264 12.4167 15.5833V14.3091C12.6265 14.125 12.7749 13.8811 12.8419 13.6102C12.9089 13.3392 12.8912 13.0543 12.7914 12.7937C12.6915 12.533 12.5142 12.3093 12.2833 12.1525C12.0525 11.9956 11.7791 11.9133 11.5 11.9166ZM16.0833 8.24993H8.75001V6.41659C8.74867 5.87227 8.9089 5.33978 9.21041 4.88659C9.51192 4.43339 9.94114 4.07987 10.4437 3.87079C10.9463 3.66171 11.4996 3.60648 12.0336 3.7121C12.5676 3.81772 13.0582 4.07943 13.4433 4.46409C13.788 4.81616 14.0345 5.25227 14.1583 5.72909C14.1884 5.84586 14.2412 5.95556 14.3137 6.05192C14.3862 6.14828 14.477 6.22942 14.5808 6.29071C14.6847 6.35199 14.7996 6.39223 14.919 6.40911C15.0384 6.42599 15.1599 6.41919 15.2767 6.38909C15.3934 6.359 15.5031 6.3062 15.5995 6.23371C15.6959 6.16122 15.777 6.07046 15.8383 5.96662C15.8996 5.86277 15.9398 5.74787 15.9567 5.62847C15.9736 5.50908 15.9668 5.38753 15.9367 5.27076C15.7278 4.47766 15.3136 3.75362 14.7358 3.17159C14.0943 2.5321 13.2777 2.09702 12.3891 1.9213C11.5005 1.74558 10.5798 1.8371 9.74318 2.1843C8.90656 2.5315 8.19158 3.11882 7.68851 3.87209C7.18545 4.62535 6.91686 5.51079 6.91667 6.41659V8.24993C6.18733 8.24993 5.48785 8.53966 4.97213 9.05538C4.4564 9.57111 4.16667 10.2706 4.16667 10.9999V17.4166C4.16667 18.1459 4.4564 18.8454 4.97213 19.3611C5.48785 19.8769 6.18733 20.1666 6.91667 20.1666H16.0833C16.8127 20.1666 17.5122 19.8769 18.0279 19.3611C18.5436 18.8454 18.8333 18.1459 18.8333 17.4166V10.9999C18.8333 10.2706 18.5436 9.57111 18.0279 9.05538C17.5122 8.53966 16.8127 8.24993 16.0833 8.24993ZM17 17.4166C17 17.6597 16.9034 17.8929 16.7315 18.0648C16.5596 18.2367 16.3265 18.3333 16.0833 18.3333H6.91667C6.67356 18.3333 6.4404 18.2367 6.26849 18.0648C6.09658 17.8929 6.00001 17.6597 6.00001 17.4166V10.9999C6.00001 10.7568 6.09658 10.5237 6.26849 10.3517C6.4404 10.1798 6.67356 10.0833 6.91667 10.0833H16.0833C16.3265 10.0833 16.5596 10.1798 16.7315 10.3517C16.9034 10.5237 17 10.7568 17 10.9999V17.4166Z" fill="black"/>
</svg>
