<svg width="16" height="16" viewBox="0 0 16 16" fill="none" xmlns="http://www.w3.org/2000/svg">
    <path
        d="M14.6667 4.82635C14.6672 4.73861 14.6504 4.65164 14.6172 4.57041C14.5841 4.48919 14.5352 4.41531 14.4734 4.35302L11.6467 1.52635C11.5844 1.46456 11.5105 1.41568 11.4293 1.3825C11.3481 1.34933 11.2611 1.33251 11.1734 1.33302C11.0856 1.33251 10.9987 1.34933 10.9174 1.3825C10.8362 1.41568 10.7623 1.46456 10.7001 1.52635L8.81339 3.41302L1.52672 10.6997C1.46493 10.762 1.41605 10.8359 1.38287 10.9171C1.34969 10.9983 1.33288 11.0853 1.33339 11.173V13.9997C1.33339 14.1765 1.40362 14.3461 1.52865 14.4711C1.65367 14.5961 1.82324 14.6664 2.00005 14.6664H4.82672C4.92 14.6714 5.01331 14.6568 5.1006 14.6235C5.18788 14.5902 5.26719 14.5389 5.33338 14.473L12.5801 7.18635L14.4734 5.33302C14.5342 5.26841 14.5838 5.19404 14.6201 5.11302C14.6265 5.05988 14.6265 5.00616 14.6201 4.95302C14.6232 4.92199 14.6232 4.89072 14.6201 4.85969L14.6667 4.82635ZM4.55339 13.333H2.66672V11.4464L9.28672 4.82635L11.1734 6.71302L4.55339 13.333ZM12.1134 5.77302L10.2267 3.88635L11.1734 2.94635L13.0534 4.82635L12.1134 5.77302Z"
        fill="#000000" />
</svg>
