<svg width="25" height="24" viewBox="0 0 25 24" fill="none" xmlns="http://www.w3.org/2000/svg">
<path d="M10.1005 12.9852C9.71 13.3758 9.71 14.0089 10.1005 14.3995C10.491 14.79 11.1242 14.79 11.5147 14.3995L10.1005 12.9852ZM16.3609 9.5533C16.7514 9.16277 16.7514 8.52961 16.3609 8.13908C15.9704 7.74856 15.3372 7.74856 14.9467 8.13908L16.3609 9.5533ZM11.5147 14.3995L16.3609 9.5533L14.9467 8.13908L10.1005 12.9852L11.5147 14.3995Z" fill="black"/>
<path d="M14.2302 20.7675L13.3357 21.2148L14.2302 20.7675ZM16.0804 20.6144L15.1246 20.3203L16.0804 20.6144ZM10.4328 13.6201L9.98563 14.5145L10.4328 13.6201ZM10.8801 14.0673L11.7745 13.6201L10.8801 14.0673ZM3.88574 8.41978L4.17982 9.37556L3.88574 8.41978ZM3.73261 10.27L3.2854 11.1644H3.2854L3.73261 10.27ZM19.6949 3.55543L19.9889 4.51121L19.6949 3.55543ZM20.9447 4.8053L21.9005 5.09938L20.9447 4.8053ZM19.4008 2.59965L3.59165 7.464L4.17982 9.37556L19.9889 4.51121L19.4008 2.59965ZM3.2854 11.1644L9.98563 14.5145L10.8801 12.7257L4.17982 9.37555L3.2854 11.1644ZM9.98563 14.5145L13.3357 21.2148L15.1246 20.3203L11.7745 13.6201L9.98563 14.5145ZM17.0362 20.9085L21.9005 5.09938L19.9889 4.51121L15.1246 20.3203L17.0362 20.9085ZM13.3357 21.2148C14.1427 22.8286 16.5055 22.633 17.0362 20.9085L15.1246 20.3203L13.3357 21.2148ZM9.98563 14.5145V14.5145L11.7745 13.6201C11.581 13.233 11.2671 12.9192 10.8801 12.7257L9.98563 14.5145ZM3.59165 7.464C1.86712 7.99462 1.67157 10.3575 3.2854 11.1644L4.17982 9.37555L4.17982 9.37556L3.59165 7.464ZM19.9889 4.51121L19.9889 4.51121L21.9005 5.09938C22.3727 3.56483 20.9353 2.12748 19.4008 2.59965L19.9889 4.51121Z" fill="black"/>
</svg>
