<svg width="22" height="23" viewBox="0 0 22 23" fill="none" xmlns="http://www.w3.org/2000/svg">
<path d="M7.33329 19.75H3.66663C3.42351 19.75 3.19035 19.6534 3.01845 19.4815C2.84654 19.3096 2.74996 19.0764 2.74996 18.8333V15.1666C2.74996 14.9235 2.65338 14.6904 2.48147 14.5184C2.30957 14.3465 2.07641 14.25 1.83329 14.25C1.59018 14.25 1.35702 14.3465 1.18511 14.5184C1.0132 14.6904 0.916626 14.9235 0.916626 15.1666V18.8333C0.916626 19.5626 1.20636 20.2621 1.72208 20.7778C2.23781 21.2936 2.93728 21.5833 3.66663 21.5833H7.33329C7.57641 21.5833 7.80957 21.4867 7.98147 21.3148C8.15338 21.1429 8.24996 20.9097 8.24996 20.6666C8.24996 20.4235 8.15338 20.1904 7.98147 20.0184C7.80957 19.8465 7.57641 19.75 7.33329 19.75ZM20.1666 14.25C19.9235 14.25 19.6904 14.3465 19.5184 14.5184C19.3465 14.6904 19.25 14.9235 19.25 15.1666V18.8333C19.25 19.0764 19.1534 19.3096 18.9815 19.4815C18.8096 19.6534 18.5764 19.75 18.3333 19.75H14.6666C14.4235 19.75 14.1904 19.8465 14.0184 20.0184C13.8465 20.1904 13.75 20.4235 13.75 20.6666C13.75 20.9097 13.8465 21.1429 14.0184 21.3148C14.1904 21.4867 14.4235 21.5833 14.6666 21.5833H18.3333C19.0626 21.5833 19.7621 21.2936 20.2778 20.7778C20.7936 20.2621 21.0833 19.5626 21.0833 18.8333V15.1666C21.0833 14.9235 20.9867 14.6904 20.8148 14.5184C20.6429 14.3465 20.4097 14.25 20.1666 14.25ZM18.3333 1.41663H14.6666C14.4235 1.41663 14.1904 1.5132 14.0184 1.68511C13.8465 1.85702 13.75 2.09018 13.75 2.33329C13.75 2.57641 13.8465 2.80957 14.0184 2.98147C14.1904 3.15338 14.4235 3.24996 14.6666 3.24996H18.3333C18.5764 3.24996 18.8096 3.34654 18.9815 3.51845C19.1534 3.69035 19.25 3.92351 19.25 4.16663V7.83329C19.25 8.07641 19.3465 8.30957 19.5184 8.48147C19.6904 8.65338 19.9235 8.74996 20.1666 8.74996C20.4097 8.74996 20.6429 8.65338 20.8148 8.48147C20.9867 8.30957 21.0833 8.07641 21.0833 7.83329V4.16663C21.0833 3.43728 20.7936 2.73781 20.2778 2.22208C19.7621 1.70636 19.0626 1.41663 18.3333 1.41663ZM1.83329 8.74996C2.07641 8.74996 2.30957 8.65338 2.48147 8.48147C2.65338 8.30957 2.74996 8.07641 2.74996 7.83329V4.16663C2.74996 3.92351 2.84654 3.69035 3.01845 3.51845C3.19035 3.34654 3.42351 3.24996 3.66663 3.24996H7.33329C7.57641 3.24996 7.80957 3.15338 7.98147 2.98147C8.15338 2.80957 8.24996 2.57641 8.24996 2.33329C8.24996 2.09018 8.15338 1.85702 7.98147 1.68511C7.80957 1.5132 7.57641 1.41663 7.33329 1.41663H3.66663C2.93728 1.41663 2.23781 1.70636 1.72208 2.22208C1.20636 2.73781 0.916626 3.43728 0.916626 4.16663V7.83329C0.916626 8.07641 1.0132 8.30957 1.18511 8.48147C1.35702 8.65338 1.59018 8.74996 1.83329 8.74996ZM9.16663 5.08329H5.49996C5.25684 5.08329 5.02369 5.17987 4.85178 5.35178C4.67987 5.52369 4.58329 5.75684 4.58329 5.99996V9.66663C4.58329 9.90974 4.67987 10.1429 4.85178 10.3148C5.02369 10.4867 5.25684 10.5833 5.49996 10.5833H9.16663C9.40974 10.5833 9.6429 10.4867 9.81481 10.3148C9.98672 10.1429 10.0833 9.90974 10.0833 9.66663V5.99996C10.0833 5.75684 9.98672 5.52369 9.81481 5.35178C9.6429 5.17987 9.40974 5.08329 9.16663 5.08329ZM8.24996 8.74996H6.41663V6.91663H8.24996V8.74996ZM12.8333 10.5833H16.5C16.7431 10.5833 16.9762 10.4867 17.1481 10.3148C17.3201 10.1429 17.4166 9.90974 17.4166 9.66663V5.99996C17.4166 5.75684 17.3201 5.52369 17.1481 5.35178C16.9762 5.17987 16.7431 5.08329 16.5 5.08329H12.8333C12.5902 5.08329 12.357 5.17987 12.1851 5.35178C12.0132 5.52369 11.9166 5.75684 11.9166 5.99996V9.66663C11.9166 9.90974 12.0132 10.1429 12.1851 10.3148C12.357 10.4867 12.5902 10.5833 12.8333 10.5833ZM13.75 6.91663H15.5833V8.74996H13.75V6.91663ZM9.16663 12.4166H5.49996C5.25684 12.4166 5.02369 12.5132 4.85178 12.6851C4.67987 12.857 4.58329 13.0902 4.58329 13.3333V17C4.58329 17.2431 4.67987 17.4762 4.85178 17.6481C5.02369 17.8201 5.25684 17.9166 5.49996 17.9166H9.16663C9.40974 17.9166 9.6429 17.8201 9.81481 17.6481C9.98672 17.4762 10.0833 17.2431 10.0833 17V13.3333C10.0833 13.0902 9.98672 12.857 9.81481 12.6851C9.6429 12.5132 9.40974 12.4166 9.16663 12.4166ZM8.24996 16.0833H6.41663V14.25H8.24996V16.0833ZM12.8333 15.1666C13.0764 15.1666 13.3096 15.0701 13.4815 14.8981C13.6534 14.7262 13.75 14.4931 13.75 14.25C13.9931 14.25 14.2262 14.1534 14.3981 13.9815C14.5701 13.8096 14.6666 13.5764 14.6666 13.3333C14.6666 13.0902 14.5701 12.857 14.3981 12.6851C14.2262 12.5132 13.9931 12.4166 13.75 12.4166H12.8333C12.5902 12.4166 12.357 12.5132 12.1851 12.6851C12.0132 12.857 11.9166 13.0902 11.9166 13.3333V14.25C11.9166 14.4931 12.0132 14.7262 12.1851 14.8981C12.357 15.0701 12.5902 15.1666 12.8333 15.1666ZM16.5 12.4166C16.2568 12.4166 16.0237 12.5132 15.8518 12.6851C15.6799 12.857 15.5833 13.0902 15.5833 13.3333V16.0833C15.3402 16.0833 15.107 16.1799 14.9351 16.3518C14.7632 16.5237 14.6666 16.7568 14.6666 17C14.6666 17.2431 14.7632 17.4762 14.9351 17.6481C15.107 17.8201 15.3402 17.9166 15.5833 17.9166H16.5C16.7431 17.9166 16.9762 17.8201 17.1481 17.6481C17.3201 17.4762 17.4166 17.2431 17.4166 17V13.3333C17.4166 13.0902 17.3201 12.857 17.1481 12.6851C16.9762 12.5132 16.7431 12.4166 16.5 12.4166ZM12.8333 16.0833C12.652 16.0833 12.4748 16.1371 12.324 16.2378C12.1733 16.3385 12.0558 16.4817 11.9864 16.6492C11.917 16.8167 11.8989 17.001 11.9342 17.1788C11.9696 17.3566 12.0569 17.5199 12.1851 17.6481C12.3133 17.7763 12.4766 17.8636 12.6545 17.899C12.8323 17.9344 13.0166 17.9162 13.1841 17.8468C13.3516 17.7775 13.4947 17.66 13.5955 17.5092C13.6962 17.3585 13.75 17.1813 13.75 17C13.75 16.7568 13.6534 16.5237 13.4815 16.3518C13.3096 16.1799 13.0764 16.0833 12.8333 16.0833Z" fill="white"/>
</svg>
