<svg width="32" height="32" viewBox="0 0 32 32" fill="none" xmlns="http://www.w3.org/2000/svg">
<path d="M26.5467 20.68H20.5067C20.1531 20.68 19.814 20.8205 19.5639 21.0705C19.3139 21.3206 19.1734 21.6597 19.1734 22.0134C19.1734 22.367 19.3139 22.7061 19.5639 22.9562C19.814 23.2062 20.1531 23.3467 20.5067 23.3467H23.7067C22.236 24.8837 20.3393 25.9458 18.2603 26.3965C16.1813 26.8473 14.015 26.6662 12.0398 25.8763C10.0645 25.0865 8.37057 23.7242 7.17554 21.9642C5.9805 20.2043 5.33898 18.1273 5.33341 16C5.33341 15.6464 5.19294 15.3073 4.94289 15.0572C4.69284 14.8072 4.3537 14.6667 4.00008 14.6667C3.64646 14.6667 3.30732 14.8072 3.05727 15.0572C2.80722 15.3073 2.66675 15.6464 2.66675 16C2.6738 18.6038 3.44304 21.1484 4.87955 23.3201C6.31606 25.4917 8.35697 27.1952 10.7504 28.2203C13.1438 29.2455 15.7851 29.5474 18.3481 29.0889C20.9112 28.6303 23.2839 27.4314 25.1734 25.64V28C25.1734 28.3536 25.3139 28.6928 25.5639 28.9428C25.814 29.1929 26.1531 29.3334 26.5067 29.3334C26.8604 29.3334 27.1995 29.1929 27.4496 28.9428C27.6996 28.6928 27.8401 28.3536 27.8401 28V22C27.8368 21.6555 27.7003 21.3257 27.4592 21.0796C27.2181 20.8335 26.8911 20.6903 26.5467 20.68ZM16.0001 2.66669C12.5819 2.67644 9.29807 3.99857 6.82675 6.36002V4.00002C6.82675 3.6464 6.68627 3.30726 6.43622 3.05721C6.18618 2.80716 5.84704 2.66669 5.49341 2.66669C5.13979 2.66669 4.80065 2.80716 4.55061 3.05721C4.30056 3.30726 4.16008 3.6464 4.16008 4.00002V10C4.16008 10.3536 4.30056 10.6928 4.55061 10.9428C4.80065 11.1929 5.13979 11.3334 5.49341 11.3334H11.4934C11.847 11.3334 12.1862 11.1929 12.4362 10.9428C12.6863 10.6928 12.8267 10.3536 12.8267 10C12.8267 9.6464 12.6863 9.30726 12.4362 9.05721C12.1862 8.80716 11.847 8.66669 11.4934 8.66669H8.29341C9.76337 7.13051 11.6589 6.06869 13.7366 5.6175C15.8144 5.16631 17.9795 5.34635 19.9542 6.1345C21.9289 6.92266 23.623 8.28297 24.8191 10.0408C26.0151 11.7987 26.6585 13.8739 26.6667 16C26.6667 16.3536 26.8072 16.6928 27.0573 16.9428C27.3073 17.1929 27.6465 17.3334 28.0001 17.3334C28.3537 17.3334 28.6928 17.1929 28.9429 16.9428C29.1929 16.6928 29.3334 16.3536 29.3334 16C29.3334 14.2491 28.9885 12.5152 28.3185 10.8976C27.6484 9.2799 26.6663 7.81004 25.4282 6.57193C24.1901 5.33382 22.7202 4.35169 21.1025 3.68163C19.4849 3.01156 17.751 2.66669 16.0001 2.66669Z" fill="black"/>
</svg>
