<svg width="16" height="16" viewBox="0 0 16 16" fill="none" xmlns="http://www.w3.org/2000/svg">
    <path
        d="M8.19984 8.14658C8.55556 7.83867 8.84087 7.45784 9.03642 7.02993C9.23197 6.60203 9.33318 6.13706 9.33317 5.66658C9.33317 4.78253 8.98198 3.93468 8.35686 3.30956C7.73174 2.68444 6.88389 2.33325 5.99984 2.33325C5.11578 2.33325 4.26794 2.68444 3.64281 3.30956C3.01769 3.93468 2.6665 4.78253 2.6665 5.66658C2.6665 6.13706 2.76771 6.60203 2.96325 7.02993C3.1588 7.45784 3.44412 7.83867 3.79984 8.14658C2.8666 8.56917 2.07481 9.2516 1.51916 10.1123C0.963501 10.973 0.667485 11.9755 0.666504 12.9999C0.666504 13.1767 0.736742 13.3463 0.861766 13.4713C0.98679 13.5963 1.15636 13.6666 1.33317 13.6666C1.50998 13.6666 1.67955 13.5963 1.80458 13.4713C1.9296 13.3463 1.99984 13.1767 1.99984 12.9999C1.99984 11.9391 2.42126 10.9216 3.17141 10.1715C3.92156 9.42135 4.93897 8.99992 5.99984 8.99992C7.0607 8.99992 8.07812 9.42135 8.82826 10.1715C9.57841 10.9216 9.99984 11.9391 9.99984 12.9999C9.99984 13.1767 10.0701 13.3463 10.1951 13.4713C10.3201 13.5963 10.4897 13.6666 10.6665 13.6666C10.8433 13.6666 11.0129 13.5963 11.1379 13.4713C11.2629 13.3463 11.3332 13.1767 11.3332 12.9999C11.3322 11.9755 11.0362 10.973 10.4805 10.1123C9.92486 9.2516 9.13308 8.56917 8.19984 8.14658ZM5.99984 7.66658C5.60427 7.66658 5.2176 7.54929 4.8887 7.32952C4.5598 7.10976 4.30345 6.7974 4.15208 6.43195C4.0007 6.0665 3.9611 5.66437 4.03827 5.2764C4.11544 4.88844 4.30592 4.53208 4.58562 4.25237C4.86533 3.97267 5.22169 3.78219 5.60966 3.70501C5.99762 3.62784 6.39975 3.66745 6.7652 3.81883C7.13066 3.9702 7.44301 4.22655 7.66278 4.55544C7.88254 4.88434 7.99984 5.27102 7.99984 5.66658C7.99984 6.19702 7.78912 6.70573 7.41405 7.0808C7.03898 7.45587 6.53027 7.66658 5.99984 7.66658ZM12.4932 7.87992C12.9198 7.39947 13.1985 6.80595 13.2957 6.17081C13.3929 5.53567 13.3045 4.88597 13.041 4.29992C12.7776 3.71387 12.3504 3.21645 11.8108 2.86753C11.2713 2.51862 10.6424 2.33308 9.99984 2.33325C9.82303 2.33325 9.65346 2.40349 9.52843 2.52851C9.40341 2.65354 9.33317 2.82311 9.33317 2.99992C9.33317 3.17673 9.40341 3.3463 9.52843 3.47132C9.65346 3.59635 9.82303 3.66659 9.99984 3.66659C10.5303 3.66659 11.039 3.8773 11.4141 4.25237C11.7891 4.62744 11.9998 5.13615 11.9998 5.66658C11.9989 6.01674 11.906 6.36052 11.7305 6.66353C11.5551 6.96654 11.3031 7.21817 10.9998 7.39325C10.901 7.45027 10.8184 7.53169 10.7601 7.62975C10.7017 7.7278 10.6695 7.83919 10.6665 7.95325C10.6637 8.06643 10.6898 8.17845 10.7423 8.27876C10.7948 8.37906 10.8719 8.46435 10.9665 8.52659L11.2265 8.69992L11.3132 8.74658C12.1168 9.12773 12.7947 9.73058 13.2672 10.4841C13.7396 11.2377 13.9869 12.1105 13.9798 12.9999C13.9798 13.1767 14.0501 13.3463 14.1751 13.4713C14.3001 13.5963 14.4697 13.6666 14.6465 13.6666C14.8233 13.6666 14.9929 13.5963 15.1179 13.4713C15.2429 13.3463 15.3132 13.1767 15.3132 12.9999C15.3186 11.9769 15.0624 10.9694 14.5688 10.0733C14.0752 9.17717 13.3607 8.42213 12.4932 7.87992Z"
        fill="#000000" />
</svg>
